<svg id="Layer_1" data-name="Layer 1" xmlns="http://www.w3.org/2000/svg" viewBox="0 0 515.74 298.21"><defs><style>.cls-1{fill:#231f20;}</style></defs><title>Help100_logo</title><path class="cls-1" d="M115.15,54.47V49.72a2.58,2.58,0,0,0-.74-2.08,3.58,3.58,0,0,0-2.23-.59,1.84,1.84,0,0,1-.74.45,3.11,3.11,0,0,0-1,.74A110.1,110.1,0,0,1,80.29,62.92a111.38,111.38,0,0,1-33.07,4.9V84.44H70.65v37.12h44.5Z"/><path class="cls-1" d="M70.65,207q0,16.32-6.83,20t-22,3.42v17.8h98.2V230.69q-13.06,0-19-4.15t-5.93-19V179.33H70.65Z"/><path class="cls-1" d="M253.16,191.83a124.5,124.5,0,0,1-9,31.59q-6.39,14.39-18.84,14.38-14,0-20.77-14.38A114,114,0,0,1,195,191.53c-.61-4.15-1.09-8.22-1.47-12.2h-42.9a120.44,120.44,0,0,0,20.78,46q18.84,25.82,53.85,25.81a62.06,62.06,0,0,0,27-6.08,71.63,71.63,0,0,0,22.24-16.47,84.77,84.77,0,0,0,19-32.93,150.36,150.36,0,0,0,4-16.35H254.62Q254.07,185.4,253.16,191.83Z"/><path class="cls-1" d="M194.72,111.43a118.66,118.66,0,0,1,9.05-33.07q6.67-15,21.21-15,12.47.6,18.84,14.83a122.82,122.82,0,0,1,9.05,31.16c.71,4.13,1.26,8.19,1.68,12.2h43.11a124.23,124.23,0,0,0-20.32-46.77Q259.7,49.72,225.28,49.72q-35,0-53.55,26.11a126.72,126.72,0,0,0-20.57,45.73h42.28C193.78,118.22,194.18,114.85,194.72,111.43Z"/><path class="cls-1" d="M429.39,191.83a125.74,125.74,0,0,1-9.05,31.59Q414,237.81,401.5,237.8q-14,0-20.77-14.38a114.37,114.37,0,0,1-9.5-31.89q-.9-6.22-1.46-12.2h-42.9a120.31,120.31,0,0,0,20.79,46q18.82,25.82,53.84,25.81a62.06,62.06,0,0,0,27-6.08,71.79,71.79,0,0,0,22.25-16.47,84.87,84.87,0,0,0,19-32.93,150.36,150.36,0,0,0,4-16.35H430.84Q430.27,185.4,429.39,191.83Z"/><path class="cls-1" d="M370.94,111.43A118.66,118.66,0,0,1,380,78.36q6.67-15,21.22-15Q413.66,64,420,78.2a122.82,122.82,0,0,1,9,31.16q1.05,6.19,1.68,12.2h43.1a124,124,0,0,0-20.31-46.77Q435.91,49.72,401.5,49.72q-35,0-53.55,26.11a126.72,126.72,0,0,0-20.57,45.73h42.28C370,118.22,370.4,114.85,370.94,111.43Z"/><path class="cls-1" d="M61.66,150v22.8H57.1V125h4.56v21.48h21V125h4.57v47.88H82.62V150Z"/><path class="cls-1" d="M187.13,125h24.73v3.75H191.7v17.51h17.58v3.59H191.7v19.28h21.41v3.75h-26Z"/><path class="cls-1" d="M313.05,125h4.57v44.27h20.59v3.61H313.05Z"/><path class="cls-1" d="M438.16,125h14a18.14,18.14,0,0,1,6.69,1.1,11.85,11.85,0,0,1,4.56,3.05,12.46,12.46,0,0,1,2.62,4.56,18.34,18.34,0,0,1,.84,5.63,18.71,18.71,0,0,1-.82,5.59,12.14,12.14,0,0,1-2.56,4.63,12.39,12.39,0,0,1-4.56,3.17,17.32,17.32,0,0,1-6.77,1.17h-9.41v19h-4.57Zm13.46,25.6c3.78,0,6.44-.87,8-2.58s2.32-4.54,2.32-8.47v-.59c0-3.77-.79-6.42-2.36-7.93s-4.26-2.28-8.09-2.28h-8.74v21.85Z"/></svg>